# xmcd CD database file
#
# Track frame offsets:
#	157
#	24695
#	50140
#	75437
#	100087
#	126545
#
# Disc length: 1950 seconds
#
# Revision: 0
# Processed by: cddbd v1.5.1PL0 Copyright (c) Steve Scherf et al.
# Submitted via: CdAid (MTCDDB.DLL V2003.12.21)
#
DISCID=4b079c06
DTITLE=Minnie Pearl - Queen Of The Grand Ole Opry
DYEAR=1998
DGENRE=Comedy
TTITLE0=Looking At Fellers
TTITLE1=My Hometown
TTITLE2=I Went To A Wedding
TTITLE3=Big Party
TTITLE4=Scared To Death
TTITLE5=Little Trouble In Town
EXTD=ID3G:  57 YEAR: 1998
EXTT0=
EXTT1=
EXTT2=
EXTT3=
EXTT4=
EXTT5=
PLAYORDER=
